<svg width="58" height="35" viewBox="0 0 58 35" fill="none" xmlns="http://www.w3.org/2000/svg">
<g clip-path="url(#clip0_11134_9489)">
<path d="M0.717285 24.1866H5.59157L8.56958 9.63267H12.225L12.7639 6.92508H9.17871L9.31457 6.31596C9.5174 5.16787 9.92369 3.87882 11.7511 3.87882C12.8354 3.87882 13.8502 3.94643 14.8649 4.42034L15.4071 1.57754C14.2762 1.17849 13.0862 0.97237 11.8869 0.967773C7.96046 0.967773 5.25352 3.26969 4.23746 6.92508H2.5453L2.00378 9.63267H3.69594L0.717285 24.1866Z" fill="#EA1D2C"/>
<path d="M16.1516 20.6669C21.9054 20.6669 25.8995 15.4539 25.8995 11.1894C25.8995 8.00793 22.9885 6.65382 20.1457 6.65382C13.8484 6.65382 10.3978 12.2756 10.3978 16.1313C10.3978 19.3128 13.3764 20.6669 16.1516 20.6669ZM31.587 20.6669C37.3409 20.6669 41.335 15.4539 41.335 11.1894C41.335 8.00793 38.3563 6.65382 35.5129 6.65382C29.2175 6.65382 25.7656 12.2724 25.7656 16.1313C25.7656 19.3128 28.8119 20.6669 31.587 20.6669ZM49.2549 20.3958H54.0609L57.9861 1.24121H53.1125L51.9612 6.92745L49.9303 6.72462C45.1919 6.72462 40.8598 12.8165 40.8598 17.1493C40.8598 18.909 42.0079 20.6695 43.9737 20.6695C46.7488 20.6695 48.7121 19.3153 49.5228 17.9612H49.7932L49.2549 20.3958ZM34.2257 30.4824C30.4427 33.6169 25.5837 35.1474 20.6872 34.747C14.256 34.3407 9.65278 29.3988 8.84082 24.1864H9.11126C10.6006 27.4394 14.1884 30.4824 18.5887 30.9557C23.0535 31.4972 28.4043 29.467 31.3147 26.6912L28.0656 24.1864H37.8811L35.7125 34.6117L34.2908 30.55L34.2257 30.4824Z" fill="#EA1D2C"/>
</g>
<defs>
<clipPath id="clip0_11134_9489">
<rect width="57.6283" height="34.0325" fill="white" transform="translate(0.300781 0.967773)"/>
</clipPath>
</defs>
</svg>
