<svg width="68" height="31" viewBox="0 0 68 31" fill="none" xmlns="http://www.w3.org/2000/svg">
<path d="M7.27981 17.0016V15.0886L7.15583 14.6813V11.3336C7.15583 10.6841 6.96099 10.1823 6.57132 9.82805C6.18164 9.46199 5.59123 9.27896 4.80007 9.27896C4.2687 9.27896 3.74323 9.36162 3.22367 9.52694C2.71591 9.69225 2.28491 9.92251 1.93066 10.2177L1.06275 8.60589C1.5705 8.21621 2.17273 7.92691 2.86942 7.73798C3.57791 7.53724 4.31003 7.43687 5.06576 7.43687C6.43552 7.43687 7.49236 7.7675 8.23629 8.42876C8.99202 9.07822 9.36988 10.0878 9.36988 11.4576V17.0016H7.27981ZM4.30412 17.1256C3.59563 17.1256 2.97569 17.0075 2.44432 16.7713C1.91294 16.5234 1.49965 16.1868 1.20445 15.7617C0.921047 15.3248 0.779348 14.8348 0.779348 14.2916C0.779348 13.7602 0.903335 13.282 1.15131 12.8569C1.41109 12.4318 1.83029 12.0952 2.40889 11.8473C2.9875 11.5993 3.75504 11.4753 4.71151 11.4753H7.45694V12.9454H4.87092C4.11519 12.9454 3.60743 13.0694 3.34765 13.3174C3.08787 13.5536 2.95798 13.8488 2.95798 14.203C2.95798 14.6045 3.11739 14.9233 3.43621 15.1595C3.75504 15.3957 4.19785 15.5137 4.76465 15.5137C5.30783 15.5137 5.79197 15.3898 6.21707 15.1418C6.65398 14.8938 6.96689 14.5277 7.15583 14.0436L7.52779 15.372C7.31524 15.927 6.93147 16.358 6.37648 16.6651C5.8333 16.9721 5.14251 17.1256 4.30412 17.1256ZM12.2113 17.0016V7.54314H14.3191V10.1469L14.0712 9.38524C14.3546 8.74759 14.7974 8.26345 15.3996 7.93281C16.0136 7.60218 16.7753 7.43687 17.6845 7.43687V9.54465C17.59 9.52103 17.5015 9.50922 17.4188 9.50922C17.3361 9.49741 17.2535 9.49151 17.1708 9.49151C16.3324 9.49151 15.6653 9.73948 15.1693 10.2354C14.6734 10.7196 14.4254 11.4458 14.4254 12.4141V17.0016H12.2113ZM23.4689 17.1256C22.4297 17.1256 21.6268 16.8599 21.06 16.3285C20.4932 15.7853 20.2098 14.9883 20.2098 13.9373V5.45307H22.4238V13.8842C22.4238 14.3329 22.536 14.6813 22.7604 14.9292C22.9965 15.1772 23.3212 15.3012 23.7345 15.3012C24.2305 15.3012 24.6438 15.1713 24.9744 14.9115L25.5943 16.4879C25.3346 16.7005 25.0157 16.8599 24.6379 16.9662C24.26 17.0724 23.8703 17.1256 23.4689 17.1256ZM18.6511 9.38524V7.61399H24.9567V9.38524H18.6511ZM31.5502 17.1256C30.4992 17.1256 29.5782 16.9189 28.787 16.5056C28.0077 16.0805 27.3995 15.5019 26.9626 14.7698C26.5375 14.0377 26.325 13.2052 26.325 12.2724C26.325 11.3277 26.5316 10.4952 26.9449 9.77491C27.37 9.04279 27.9486 8.47009 28.6807 8.0568C29.4247 7.64351 30.269 7.43687 31.2136 7.43687C32.1347 7.43687 32.9553 7.63761 33.6756 8.03909C34.396 8.44057 34.9628 9.00737 35.376 9.73948C35.7893 10.4716 35.996 11.3336 35.996 12.3255C35.996 12.42 35.9901 12.5262 35.9783 12.6443C35.9783 12.7624 35.9724 12.8746 35.9606 12.9809H28.0785V11.5107H34.7915L33.9236 11.9713C33.9354 11.4281 33.8233 10.9498 33.5871 10.5365C33.3509 10.1233 33.0262 9.79853 32.6129 9.56236C32.2114 9.32619 31.745 9.20811 31.2136 9.20811C30.6704 9.20811 30.1922 9.32619 29.7789 9.56236C29.3774 9.79853 29.0586 10.1292 28.8224 10.5543C28.5981 10.9675 28.4859 11.4576 28.4859 12.0244V12.3786C28.4859 12.9454 28.6158 13.4473 28.8756 13.8842C29.1354 14.3211 29.5014 14.6576 29.9737 14.8938C30.4461 15.13 30.9893 15.2481 31.6033 15.2481C32.1347 15.2481 32.6129 15.1654 33.038 15.0001C33.4631 14.8348 33.841 14.575 34.1716 14.2207L35.3583 15.5846C34.9332 16.0805 34.396 16.4643 33.7465 16.7359C33.1088 16.9957 32.3767 17.1256 31.5502 17.1256ZM41.0453 17.1256C40.2541 17.1256 39.4925 17.0252 38.7604 16.8245C38.0401 16.6119 37.4674 16.358 37.0423 16.0628L37.8925 14.3801C38.3176 14.6517 38.8253 14.8761 39.4157 15.0532C40.0061 15.2303 40.5966 15.3189 41.187 15.3189C41.8837 15.3189 42.3855 15.2244 42.6925 15.0355C43.0114 14.8466 43.1708 14.5927 43.1708 14.2739C43.1708 14.0141 43.0645 13.8193 42.8519 13.6894C42.6394 13.5477 42.3619 13.4414 42.0195 13.3705C41.677 13.2997 41.2932 13.2347 40.8681 13.1757C40.4549 13.1167 40.0357 13.0399 39.6106 12.9454C39.1973 12.8392 38.8194 12.6916 38.477 12.5026C38.1345 12.3019 37.857 12.0362 37.6445 11.7056C37.4319 11.3749 37.3257 10.938 37.3257 10.3948C37.3257 9.79262 37.4969 9.27306 37.8393 8.83615C38.1818 8.38743 38.66 8.04499 39.274 7.80883C39.8999 7.56085 40.6379 7.43687 41.4881 7.43687C42.1257 7.43687 42.7693 7.50772 43.4187 7.64942C44.0682 7.79112 44.6055 7.99186 45.0306 8.25164L44.1804 9.93432C43.7317 9.66273 43.277 9.4797 42.8165 9.38524C42.3678 9.27896 41.9191 9.22582 41.4704 9.22582C40.7973 9.22582 40.2954 9.32619 39.9648 9.52694C39.646 9.72768 39.4866 9.98155 39.4866 10.2886C39.4866 10.572 39.5928 10.7845 39.8054 10.9262C40.0179 11.0679 40.2954 11.1801 40.6379 11.2628C40.9803 11.3454 41.3582 11.4163 41.7715 11.4753C42.1966 11.5225 42.6158 11.5993 43.0291 11.7056C43.4424 11.8118 43.8202 11.9594 44.1627 12.1484C44.5169 12.3255 44.8003 12.5794 45.0129 12.91C45.2254 13.2406 45.3317 13.6716 45.3317 14.203C45.3317 14.7934 45.1546 15.3071 44.8003 15.744C44.4579 16.1809 43.9678 16.5234 43.3302 16.7713C42.6925 17.0075 41.9309 17.1256 41.0453 17.1256ZM53.0658 17.0016V15.0886L52.9418 14.6813V11.3336C52.9418 10.6841 52.747 10.1823 52.3573 9.82805C51.9676 9.46199 51.3772 9.27896 50.586 9.27896C50.0547 9.27896 49.5292 9.36162 49.0096 9.52694C48.5019 9.69225 48.0709 9.92251 47.7166 10.2177L46.8487 8.60589C47.3565 8.21621 47.9587 7.92691 48.6554 7.73798C49.3639 7.53724 50.096 7.43687 50.8517 7.43687C52.2215 7.43687 53.2783 7.7675 54.0223 8.42876C54.778 9.07822 55.1559 10.0878 55.1559 11.4576V17.0016H53.0658ZM50.0901 17.1256C49.3816 17.1256 48.7617 17.0075 48.2303 16.7713C47.6989 16.5234 47.2856 16.1868 46.9904 15.7617C46.707 15.3248 46.5653 14.8348 46.5653 14.2916C46.5653 13.7602 46.6893 13.282 46.9373 12.8569C47.1971 12.4318 47.6163 12.0952 48.1949 11.8473C48.7735 11.5993 49.541 11.4753 50.4975 11.4753H53.2429V12.9454H50.6569C49.9012 12.9454 49.3934 13.0694 49.1336 13.3174C48.8738 13.5536 48.744 13.8488 48.744 14.203C48.744 14.6045 48.9034 14.9233 49.2222 15.1595C49.541 15.3957 49.9838 15.5137 50.5506 15.5137C51.0938 15.5137 51.5779 15.3898 52.003 15.1418C52.44 14.8938 52.7529 14.5277 52.9418 14.0436L53.3138 15.372C53.1012 15.927 52.7174 16.358 52.1625 16.6651C51.6193 16.9721 50.9285 17.1256 50.0901 17.1256ZM52.3219 6.25013C52.0385 6.25013 51.7787 6.19699 51.5425 6.09072C51.3182 5.97264 51.1115 5.83684 50.9226 5.68333C50.7455 5.51802 50.5742 5.37632 50.4089 5.25824C50.2436 5.14015 50.0783 5.08111 49.913 5.08111C49.665 5.08111 49.4643 5.17558 49.3108 5.36451C49.1572 5.55344 49.0687 5.81323 49.0451 6.14386H47.8583C47.8819 5.41174 48.0591 4.83314 48.3897 4.40804C48.7321 3.98294 49.1927 3.77039 49.7713 3.77039C50.0547 3.77039 50.3145 3.82943 50.5506 3.94751C50.7868 4.0656 50.9934 4.20139 51.1706 4.3549C51.3595 4.50841 51.5366 4.6442 51.7019 4.76229C51.8672 4.88037 52.0267 4.93941 52.1802 4.93941C52.4281 4.93941 52.6289 4.85085 52.7824 4.67372C52.9477 4.4966 53.0363 4.24863 53.0481 3.9298H54.2348C54.223 4.61468 54.0459 5.17558 53.7034 5.61249C53.361 6.03758 52.9005 6.25013 52.3219 6.25013ZM62.2656 17.1256C61.2973 17.1256 60.4353 16.9189 59.6796 16.5056C58.9239 16.0805 58.3275 15.5019 57.8906 14.7698C57.4537 14.0377 57.2353 13.2052 57.2353 12.2724C57.2353 11.3277 57.4537 10.4952 57.8906 9.77491C58.3275 9.04279 58.9239 8.47009 59.6796 8.0568C60.4353 7.64351 61.2973 7.43687 62.2656 7.43687C63.2457 7.43687 64.1136 7.64351 64.8693 8.0568C65.6369 8.47009 66.2332 9.03689 66.6583 9.7572C67.0952 10.4775 67.3137 11.3159 67.3137 12.2724C67.3137 13.2052 67.0952 14.0377 66.6583 14.7698C66.2332 15.5019 65.6369 16.0805 64.8693 16.5056C64.1136 16.9189 63.2457 17.1256 62.2656 17.1256ZM62.2656 15.2303C62.8088 15.2303 63.2929 15.1123 63.718 14.8761C64.1431 14.6399 64.4738 14.2975 64.7099 13.8488C64.9579 13.4001 65.0819 12.8746 65.0819 12.2724C65.0819 11.6583 64.9579 11.1329 64.7099 10.696C64.4738 10.2472 64.1431 9.9048 63.718 9.66863C63.2929 9.43247 62.8147 9.31439 62.2833 9.31439C61.7401 9.31439 61.256 9.43247 60.8309 9.66863C60.4176 9.9048 60.087 10.2472 59.839 10.696C59.591 11.1329 59.467 11.6583 59.467 12.2724C59.467 12.8746 59.591 13.4001 59.839 13.8488C60.087 14.2975 60.4176 14.6399 60.8309 14.8761C61.256 15.1123 61.7342 15.2303 62.2656 15.2303Z" fill="black"/>
<path d="M1.2753 26.3369C1.13076 26.3369 1.00323 26.2859 0.892707 26.1839C0.790684 26.0733 0.739672 25.9416 0.739672 25.7885C0.739672 25.6355 0.790684 25.508 0.892707 25.4059C1.00323 25.3039 1.13076 25.2529 1.2753 25.2529C1.41983 25.2529 1.54311 25.3039 1.64513 25.4059C1.75566 25.508 1.81092 25.6355 1.81092 25.7885C1.81092 25.9416 1.75566 26.0733 1.64513 26.1839C1.54311 26.2859 1.41983 26.3369 1.2753 26.3369ZM6.33304 26.3369C5.68689 26.3369 5.10876 26.1924 4.59864 25.9033C4.09702 25.6142 3.69743 25.2146 3.39986 24.7045C3.11079 24.1944 2.96626 23.612 2.96626 22.9574C2.96626 22.2942 3.11079 21.7076 3.39986 21.1975C3.69743 20.6873 4.09702 20.292 4.59864 20.0114C5.10876 19.7224 5.68689 19.5778 6.33304 19.5778C6.86867 19.5778 7.35328 19.6799 7.78688 19.8839C8.22898 20.0879 8.58606 20.394 8.85813 20.8021L8.38627 21.1464C8.14821 20.8064 7.85064 20.5556 7.49356 20.394C7.13648 20.2325 6.74964 20.1517 6.33304 20.1517C5.81442 20.1517 5.34681 20.2707 4.93021 20.5088C4.52212 20.7384 4.19905 21.0657 3.96099 21.4908C3.73144 21.9074 3.61666 22.3962 3.61666 22.9574C3.61666 23.5185 3.73144 24.0116 3.96099 24.4367C4.19905 24.8533 4.52212 25.1806 4.93021 25.4187C5.34681 25.6482 5.81442 25.763 6.33304 25.763C6.74964 25.763 7.13648 25.6822 7.49356 25.5207C7.85064 25.3592 8.14821 25.1084 8.38627 24.7683L8.85813 25.1126C8.58606 25.5207 8.22898 25.8268 7.78688 26.0308C7.35328 26.2349 6.86867 26.3369 6.33304 26.3369ZM13.2566 26.3369C12.619 26.3369 12.0493 26.1924 11.5477 25.9033C11.0546 25.6142 10.6592 25.2146 10.3617 24.7045C10.0726 24.1944 9.92808 23.612 9.92808 22.9574C9.92808 22.2942 10.0726 21.7118 10.3617 21.2102C10.6592 20.7001 11.0546 20.3005 11.5477 20.0114C12.0493 19.7224 12.619 19.5778 13.2566 19.5778C13.8943 19.5778 14.4639 19.7224 14.9655 20.0114C15.4671 20.3005 15.8625 20.7001 16.1515 21.2102C16.4406 21.7118 16.5851 22.2942 16.5851 22.9574C16.5851 23.612 16.4406 24.1944 16.1515 24.7045C15.8625 25.2146 15.4671 25.6142 14.9655 25.9033C14.4639 26.1924 13.8943 26.3369 13.2566 26.3369ZM13.2566 25.763C13.7667 25.763 14.2258 25.6482 14.6339 25.4187C15.042 25.1806 15.3608 24.8491 15.5904 24.424C15.8199 23.9989 15.9347 23.51 15.9347 22.9574C15.9347 22.3962 15.8199 21.9074 15.5904 21.4908C15.3608 21.0657 15.042 20.7384 14.6339 20.5088C14.2258 20.2707 13.7667 20.1517 13.2566 20.1517C12.7465 20.1517 12.2874 20.2707 11.8793 20.5088C11.4797 20.7384 11.1609 21.0657 10.9228 21.4908C10.6933 21.9074 10.5785 22.3962 10.5785 22.9574C10.5785 23.51 10.6933 23.9989 10.9228 24.424C11.1609 24.8491 11.4797 25.1806 11.8793 25.4187C12.2874 25.6482 12.7465 25.763 13.2566 25.763ZM26.8528 19.5778C27.3884 19.5778 27.8517 19.6841 28.2428 19.8967C28.6424 20.1007 28.9527 20.4153 29.1738 20.8404C29.3948 21.257 29.5054 21.7756 29.5054 22.3962V26.2859H28.8677V22.4472C28.8677 21.6991 28.6849 21.1294 28.3193 20.7384C27.9538 20.3473 27.4436 20.1517 26.789 20.1517C26.2874 20.1517 25.8538 20.258 25.4882 20.4705C25.1226 20.6831 24.842 20.9807 24.6465 21.3632C24.4509 21.7458 24.3532 22.2049 24.3532 22.7406V26.2859H23.7155V22.4472C23.7155 21.6991 23.5327 21.1294 23.1671 20.7384C22.8016 20.3473 22.2914 20.1517 21.6368 20.1517C21.1352 20.1517 20.7016 20.258 20.336 20.4705C19.9704 20.6831 19.6898 20.9807 19.4943 21.3632C19.2987 21.7458 19.201 22.2049 19.201 22.7406V26.2859H18.5633V19.6288H19.1755V21.4653L19.0862 21.2612C19.2817 20.7426 19.6091 20.3345 20.0682 20.0369C20.5273 19.7309 21.0799 19.5778 21.7261 19.5778C22.3892 19.5778 22.9461 19.7479 23.3967 20.0879C23.8558 20.4195 24.1449 20.9169 24.2639 21.58L24.0471 21.4908C24.2256 20.9211 24.5615 20.462 25.0546 20.1135C25.5477 19.7564 26.1471 19.5778 26.8528 19.5778Z" fill="black"/>
</svg>
